<svg width="232" height="140" viewBox="0 0 232 140" fill="none" xmlns="http://www.w3.org/2000/svg">
<g filter="url(#filter0_dd_401_1755)">
<rect x="32" y="18" width="76" height="76" rx="38" fill="#FFB30E"/>
<rect x="32.5" y="18.5" width="75" height="75" rx="37.5" stroke="#FAAA01"/>
<path d="M60.8789 54.5938C60.2988 55.1738 60.2988 56.1406 60.8789 56.7207L73.3828 69.2891C74.0273 69.8691 74.9941 69.8691 75.5742 69.2891L77.0566 67.8066C77.6367 67.2266 77.6367 66.2598 77.0566 65.6152L67.1309 55.625L77.0566 45.6992C77.6367 45.0547 77.6367 44.0879 77.0566 43.5078L75.5742 42.0254C74.9941 41.4453 74.0273 41.4453 73.3828 42.0254L60.8789 54.5938Z" fill="white"/>
</g>
<g filter="url(#filter1_dd_401_1755)">
<rect x="124" y="18" width="76" height="76" rx="38" fill="#FFB30E"/>
<rect x="124.5" y="18.5" width="75" height="75" rx="37.5" stroke="#FAAA01"/>
<path d="M171.057 56.7207C171.637 56.1406 171.637 55.1738 171.057 54.5938L158.553 42.0254C157.908 41.4453 156.941 41.4453 156.361 42.0254L154.879 43.5078C154.299 44.0879 154.299 45.0547 154.879 45.6992L164.805 55.625L154.879 65.6152C154.299 66.2598 154.299 67.2266 154.879 67.8066L156.361 69.2891C156.941 69.8691 157.908 69.8691 158.553 69.2891L171.057 56.7207Z" fill="white"/>
</g>
<defs>
<filter id="filter0_dd_401_1755" x="0" y="0" width="140" height="140" filterUnits="userSpaceOnUse" color-interpolation-filters="sRGB">
<feFlood flood-opacity="0" result="BackgroundImageFix"/>
<feColorMatrix in="SourceAlpha" type="matrix" values="0 0 0 0 0 0 0 0 0 0 0 0 0 0 0 0 0 0 127 0" result="hardAlpha"/>
<feOffset dy="14"/>
<feGaussianBlur stdDeviation="16"/>
<feColorMatrix type="matrix" values="0 0 0 0 1 0 0 0 0 0.698039 0 0 0 0 0.054902 0 0 0 0.29 0"/>
<feBlend mode="normal" in2="BackgroundImageFix" result="effect1_dropShadow_401_1755"/>
<feColorMatrix in="SourceAlpha" type="matrix" values="0 0 0 0 0 0 0 0 0 0 0 0 0 0 0 0 0 0 127 0" result="hardAlpha"/>
<feOffset dy="5"/>
<feGaussianBlur stdDeviation="4"/>
<feColorMatrix type="matrix" values="0 0 0 0 0.870833 0 0 0 0 0.5926 0 0 0 0 0 0 0 0 0.24 0"/>
<feBlend mode="normal" in2="effect1_dropShadow_401_1755" result="effect2_dropShadow_401_1755"/>
<feBlend mode="normal" in="SourceGraphic" in2="effect2_dropShadow_401_1755" result="shape"/>
</filter>
<filter id="filter1_dd_401_1755" x="92" y="0" width="140" height="140" filterUnits="userSpaceOnUse" color-interpolation-filters="sRGB">
<feFlood flood-opacity="0" result="BackgroundImageFix"/>
<feColorMatrix in="SourceAlpha" type="matrix" values="0 0 0 0 0 0 0 0 0 0 0 0 0 0 0 0 0 0 127 0" result="hardAlpha"/>
<feOffset dy="14"/>
<feGaussianBlur stdDeviation="16"/>
<feColorMatrix type="matrix" values="0 0 0 0 1 0 0 0 0 0.698039 0 0 0 0 0.054902 0 0 0 0.29 0"/>
<feBlend mode="normal" in2="BackgroundImageFix" result="effect1_dropShadow_401_1755"/>
<feColorMatrix in="SourceAlpha" type="matrix" values="0 0 0 0 0 0 0 0 0 0 0 0 0 0 0 0 0 0 127 0" result="hardAlpha"/>
<feOffset dy="5"/>
<feGaussianBlur stdDeviation="4"/>
<feColorMatrix type="matrix" values="0 0 0 0 0.870833 0 0 0 0 0.5926 0 0 0 0 0 0 0 0 0.24 0"/>
<feBlend mode="normal" in2="effect1_dropShadow_401_1755" result="effect2_dropShadow_401_1755"/>
<feBlend mode="normal" in="SourceGraphic" in2="effect2_dropShadow_401_1755" result="shape"/>
</filter>
</defs>
</svg>
