<svg width="15" height="15" viewBox="0 0 15 15" fill="none" xmlns="http://www.w3.org/2000/svg">
<path d="M13.8086 12.1133L11.0742 9.37891C10.9375 9.26953 10.7734 9.1875 10.6094 9.1875H10.1719C10.9102 8.23047 11.375 7.02734 11.375 5.6875C11.375 2.57031 8.80469 0 5.6875 0C2.54297 0 0 2.57031 0 5.6875C0 8.83203 2.54297 11.375 5.6875 11.375C7 11.375 8.20312 10.9375 9.1875 10.1719V10.6367C9.1875 10.8008 9.24219 10.9648 9.37891 11.1016L12.0859 13.8086C12.3594 14.082 12.7695 14.082 13.0156 13.8086L13.7812 13.043C14.0547 12.7969 14.0547 12.3867 13.8086 12.1133ZM5.6875 9.1875C3.74609 9.1875 2.1875 7.62891 2.1875 5.6875C2.1875 3.77344 3.74609 2.1875 5.6875 2.1875C7.60156 2.1875 9.1875 3.77344 9.1875 5.6875C9.1875 7.62891 7.60156 9.1875 5.6875 9.1875Z" fill="white"/>
</svg>
