<svg width="111" height="15" viewBox="0 0 111 15" fill="none" xmlns="http://www.w3.org/2000/svg">
<path d="M4.73877 11.3965L1.10596 1.9043H1.04736C1.11572 2.65625 1.1499 3.5498 1.1499 4.58496V11.3965H0V0.688477H1.875L5.26611 9.52148H5.32471L8.74512 0.688477H10.6055V11.3965H9.36035V4.49707C9.36035 3.70605 9.39453 2.84668 9.46289 1.91895H9.4043L5.74219 11.3965H4.73877ZM18.3032 11.3965L18.0615 10.2539H18.0029C17.6025 10.7568 17.2021 11.0986 16.8018 11.2793C16.4062 11.4551 15.9106 11.543 15.3149 11.543C14.519 11.543 13.894 11.3379 13.4399 10.9277C12.9907 10.5176 12.7661 9.93408 12.7661 9.17725C12.7661 7.55615 14.0625 6.70654 16.6553 6.62842L18.0176 6.58447V6.08643C18.0176 5.45654 17.8809 4.99268 17.6074 4.69482C17.3389 4.39209 16.9067 4.24072 16.311 4.24072C15.6421 4.24072 14.8853 4.4458 14.0405 4.85596L13.667 3.92578C14.0625 3.71094 14.4946 3.54248 14.9634 3.42041C15.437 3.29834 15.9106 3.2373 16.3843 3.2373C17.3413 3.2373 18.0493 3.44971 18.5083 3.87451C18.9722 4.29932 19.2041 4.98047 19.2041 5.91797V11.3965H18.3032ZM15.5566 10.5396C16.3135 10.5396 16.9067 10.332 17.3364 9.91699C17.771 9.50195 17.9883 8.9209 17.9883 8.17383V7.44873L16.7725 7.5C15.8057 7.53418 15.1074 7.68555 14.6777 7.9541C14.2529 8.21777 14.0405 8.63037 14.0405 9.19189C14.0405 9.63135 14.1724 9.96582 14.436 10.1953C14.7046 10.4248 15.0781 10.5396 15.5566 10.5396ZM27.1802 10.3198H27.1143C26.5527 11.1353 25.7129 11.543 24.5947 11.543C23.5449 11.543 22.7271 11.1841 22.1411 10.4663C21.5601 9.74854 21.2695 8.72803 21.2695 7.40479C21.2695 6.08154 21.5625 5.05371 22.1484 4.32129C22.7344 3.58887 23.5498 3.22266 24.5947 3.22266C25.6836 3.22266 26.5186 3.61816 27.0996 4.40918H27.1948L27.1436 3.83057L27.1143 3.2666V0H28.3301V11.3965H27.3413L27.1802 10.3198ZM24.7485 10.5249C25.5786 10.5249 26.1792 10.3003 26.5503 9.85107C26.9263 9.39697 27.1143 8.66699 27.1143 7.66113V7.40479C27.1143 6.26709 26.9238 5.45654 26.543 4.97314C26.167 4.48486 25.564 4.24072 24.7339 4.24072C24.021 4.24072 23.4741 4.51904 23.0933 5.07568C22.7173 5.62744 22.5293 6.40869 22.5293 7.41943C22.5293 8.44482 22.7173 9.21875 23.0933 9.74121C23.4692 10.2637 24.021 10.5249 24.7485 10.5249ZM34.3066 11.543C33.1201 11.543 32.1826 11.1816 31.4941 10.459C30.8105 9.73633 30.4688 8.73291 30.4688 7.44873C30.4688 6.15479 30.7861 5.12695 31.4209 4.36523C32.0605 3.60352 32.9175 3.22266 33.9917 3.22266C34.9976 3.22266 35.7935 3.55469 36.3794 4.21875C36.9653 4.87793 37.2583 5.74951 37.2583 6.8335V7.60254H31.7285C31.7529 8.54492 31.9897 9.26025 32.439 9.74854C32.8931 10.2368 33.5303 10.481 34.3506 10.481C35.2148 10.481 36.0693 10.3003 36.9141 9.93896V11.0229C36.4844 11.2085 36.0767 11.3403 35.6909 11.4185C35.3101 11.5015 34.8486 11.543 34.3066 11.543ZM33.9771 4.24072C33.3325 4.24072 32.8174 4.45068 32.4316 4.87061C32.0508 5.29053 31.8262 5.87158 31.7578 6.61377H35.9546C35.9546 5.84717 35.7837 5.26123 35.4419 4.85596C35.1001 4.4458 34.6118 4.24072 33.9771 4.24072ZM49.79 11.3965L48.3179 6.68701C48.2251 6.39893 48.0518 5.74463 47.7979 4.72412H47.7393C47.5439 5.57861 47.373 6.23779 47.2266 6.70166L45.7104 11.3965H44.3042L42.1143 3.36914H43.3887C43.9062 5.38574 44.2993 6.92139 44.5679 7.97607C44.8413 9.03076 44.9976 9.74121 45.0366 10.1074H45.0952C45.1489 9.8291 45.2344 9.47021 45.3516 9.03076C45.4736 8.58643 45.5786 8.23486 45.6665 7.97607L47.1387 3.36914H48.457L49.8926 7.97607C50.166 8.81592 50.3516 9.52148 50.4492 10.0928H50.5078C50.5273 9.91699 50.5786 9.646 50.6616 9.27979C50.7495 8.91357 51.2598 6.94336 52.1924 3.36914H53.4521L51.2329 11.3965H49.79ZM56.1255 11.3965H54.9097V3.36914H56.1255V11.3965ZM54.8071 1.19385C54.8071 0.915527 54.8755 0.712891 55.0122 0.585938C55.1489 0.454102 55.3198 0.388184 55.5249 0.388184C55.7202 0.388184 55.8887 0.454102 56.0303 0.585938C56.1719 0.717773 56.2427 0.92041 56.2427 1.19385C56.2427 1.46729 56.1719 1.67236 56.0303 1.80908C55.8887 1.94092 55.7202 2.00684 55.5249 2.00684C55.3198 2.00684 55.1489 1.94092 55.0122 1.80908C54.8755 1.67236 54.8071 1.46729 54.8071 1.19385ZM61.2964 10.5396C61.5112 10.5396 61.7188 10.5249 61.9189 10.4956C62.1191 10.4614 62.2778 10.4272 62.395 10.3931V11.3232C62.2632 11.3867 62.0679 11.438 61.8091 11.4771C61.5552 11.521 61.3257 11.543 61.1206 11.543C59.5679 11.543 58.7915 10.7251 58.7915 9.08936V4.31396H57.6416V3.72803L58.7915 3.22266L59.3042 1.50879H60.0073V3.36914H62.3364V4.31396H60.0073V9.03809C60.0073 9.52148 60.1221 9.89258 60.3516 10.1514C60.5811 10.4102 60.896 10.5396 61.2964 10.5396ZM69.4995 11.3965V6.20361C69.4995 5.54932 69.3506 5.06104 69.0527 4.73877C68.7549 4.4165 68.2886 4.25537 67.6538 4.25537C66.8091 4.25537 66.1914 4.48486 65.8008 4.94385C65.415 5.40283 65.2222 6.15479 65.2222 7.19971V11.3965H64.0063V0H65.2222V3.44971C65.2222 3.86475 65.2026 4.20898 65.1636 4.48242H65.2368C65.4761 4.09668 65.8154 3.79395 66.2549 3.57422C66.6992 3.34961 67.2046 3.2373 67.771 3.2373C68.7524 3.2373 69.4873 3.47168 69.9756 3.94043C70.4688 4.4043 70.7153 5.14404 70.7153 6.15967V11.3965H69.4995ZM98.3735 3.2373C99.4282 3.2373 100.246 3.59863 100.827 4.32129C101.413 5.03906 101.706 6.05713 101.706 7.37549C101.706 8.69385 101.411 9.71924 100.82 10.4517C100.234 11.1792 99.4185 11.543 98.3735 11.543C97.8511 11.543 97.3726 11.4478 96.938 11.2573C96.5083 11.062 96.147 10.7642 95.854 10.3638H95.7661L95.5098 11.3965H94.6382V0H95.854V2.76855C95.854 3.38867 95.8345 3.94531 95.7954 4.43848H95.854C96.4204 3.6377 97.2603 3.2373 98.3735 3.2373ZM98.1978 4.25537C97.3677 4.25537 96.7695 4.49463 96.4033 4.97314C96.0371 5.44678 95.854 6.24756 95.854 7.37549C95.854 8.50342 96.042 9.31152 96.418 9.7998C96.7939 10.2832 97.397 10.5249 98.2271 10.5249C98.9741 10.5249 99.5308 10.2539 99.897 9.71191C100.263 9.16504 100.446 8.38135 100.446 7.36084C100.446 6.31592 100.263 5.53711 99.897 5.02441C99.5308 4.51172 98.9644 4.25537 98.1978 4.25537ZM102.563 3.36914H103.867L105.625 7.94678C106.01 8.9917 106.25 9.74609 106.342 10.21H106.401C106.464 9.96094 106.596 9.53613 106.796 8.93555C107.001 8.33008 107.666 6.47461 108.789 3.36914H110.092L106.643 12.5098C106.301 13.4131 105.9 14.0527 105.441 14.4287C104.987 14.8096 104.428 15 103.764 15C103.393 15 103.027 14.9585 102.666 14.8755V13.9014C102.934 13.96 103.234 13.9893 103.566 13.9893C104.401 13.9893 104.997 13.5205 105.354 12.583L105.8 11.4404L102.563 3.36914Z" fill="#F5F5F5"/>
<path d="M87.0015 1.62109C85.605 0.427734 83.5483 0.65625 82.2534 1.97656L81.771 2.48438L81.2632 1.97656C79.9937 0.65625 77.9116 0.427734 76.5151 1.62109C74.9155 2.99219 74.8394 5.42969 76.2612 6.90234L81.187 11.9805C81.4917 12.3105 82.0249 12.3105 82.3296 11.9805L87.2554 6.90234C88.6772 5.42969 88.6011 2.99219 87.0015 1.62109Z" fill="#FDBC30"/>
</svg>
