<svg width="16" height="16" viewBox="0 0 16 16" fill="none" xmlns="http://www.w3.org/2000/svg">
<path d="M7.75 0C3.46875 0 0 3.5 0 7.75C0 12.0312 3.46875 15.5 7.75 15.5C12 15.5 15.5 12.0312 15.5 7.75C15.5 3.5 12 0 7.75 0ZM7.75 14C4.28125 14 1.5 11.2188 1.5 7.75C1.5 4.3125 4.28125 1.5 7.75 1.5C11.1875 1.5 14 4.3125 14 7.75C14 11.2188 11.1875 14 7.75 14ZM11.0938 10.8438C11.1562 10.7812 11.1875 10.6875 11.1875 10.5938C11.1875 10.5 11.1562 10.4375 11.125 10.375L10.5 9.53125C10.375 9.34375 10.125 9.3125 9.9375 9.46875C9.65625 9.71875 8.90625 10.3125 7.90625 10.3125C6.28125 10.3125 5.4375 9 5.4375 7.71875C5.4375 6.3125 6.375 5.1875 7.875 5.1875C8.8125 5.1875 9.53125 5.6875 9.8125 5.90625C9.96875 6.03125 10.25 6 10.3438 5.8125L10.9375 4.9375C10.9688 4.875 11 4.8125 11 4.71875C11 4.625 10.9375 4.53125 10.875 4.46875C10.5938 4.1875 9.5625 3.375 7.8125 3.375C5.34375 3.375 3.4375 5.25 3.4375 7.71875C3.4375 10.2188 5.25 12.1562 7.84375 12.1562C9.65625 12.1562 10.7812 11.1562 11.0938 10.8438Z" fill="#F5F5F5"/>
</svg>
